<svg width="108" height="52" viewBox="0 0 108 52" fill="none" xmlns="http://www.w3.org/2000/svg"><g opacity="0.3" clip-path="url(#clip0_191_3356)"><path d="M81.2091 51.9999C81.2091 51.9999 81.2372 51.9712 81.2583 51.9496C81.2442 51.9352 81.2372 51.9209 81.2231 51.9209C80.0912 51.7557 79.5006 50.9942 79.149 49.9742C79.0787 49.7659 79.0436 49.536 79.0506 49.3205C79.0647 48.8177 79.3318 48.6166 79.817 48.7243C80.3513 48.8392 80.8856 48.9685 81.42 49.0619C82.3902 49.2271 83.3605 49.2702 84.3237 49.026C85.6455 48.6956 86.6298 47.8767 87.2626 46.6699C87.6985 45.8366 88.05 44.9459 88.3945 44.0695C88.8867 42.8412 89.3367 41.5913 89.8218 40.3557C89.8991 40.169 89.8921 40.0109 89.8147 39.8242C89.1398 38.2367 88.4648 36.6492 87.7899 35.0616C85.9759 30.7876 84.162 26.5135 82.348 22.2323C81.5114 20.2568 80.6817 18.2814 79.8451 16.306C79.3389 15.1064 77.989 14.1941 76.7093 14.1941C76.6179 14.1941 76.5125 14.2157 76.4422 14.1798C76.3719 14.1438 76.3297 14.0505 76.2734 13.9786C76.3297 13.9427 76.393 13.8637 76.4492 13.8637C77.1945 13.8565 77.9397 13.8493 78.678 13.8493C80.6677 13.8493 82.6504 13.8493 84.6401 13.8493C84.7666 13.8493 84.9705 13.7847 84.9705 13.993C84.9705 14.2085 84.7737 14.1798 84.619 14.1941C84.2604 14.23 83.8948 14.266 83.5362 14.3162C83.4378 14.3306 83.3394 14.3809 83.241 14.4312C82.8613 14.6323 82.7418 14.9125 82.9035 15.3147C83.1566 15.9612 83.4238 16.5934 83.6839 17.2327C86.1869 23.3026 88.6898 29.3725 91.1998 35.4495C91.2842 35.6435 91.3686 35.8374 91.467 36.0745C91.5092 35.9883 91.5373 35.9236 91.5584 35.8662C93.6254 30.45 95.6925 25.0266 97.7666 19.6103C98.2728 18.2958 98.772 16.9741 99.2782 15.6595C99.5172 15.0202 99.3555 14.6467 98.7157 14.4096C98.2587 14.2372 97.7736 14.1941 97.2885 14.1941C97.2041 14.1941 97.1057 14.2157 97.0424 14.1798C96.9791 14.1438 96.9299 14.0576 96.9018 13.9786C96.9018 13.9571 96.9932 13.8709 97.0565 13.8637C97.1971 13.8421 97.3377 13.8493 97.4783 13.8493C99.7633 13.8493 102.055 13.8493 104.34 13.8493C104.404 13.8493 104.474 13.835 104.53 13.8565C104.593 13.8924 104.643 13.9571 104.706 14.0074C104.65 14.0648 104.608 14.151 104.537 14.1726C104.439 14.2013 104.326 14.1869 104.221 14.1869C103.272 14.2013 102.351 14.3522 101.486 14.7832C100.86 15.0992 100.389 15.5518 100.122 16.2486C98.8212 19.6032 97.4994 22.9506 96.1846 26.298C94.8699 29.6454 93.5551 32.9929 92.2404 36.3475C91.1576 39.0987 90.0819 41.8571 88.9992 44.6011C88.3383 46.2748 87.5438 47.8839 86.3978 49.2846C85.4205 50.477 84.2464 51.3678 82.7629 51.7916C82.573 51.849 82.3691 51.8706 82.1863 51.9065C82.2285 51.9281 82.2918 51.9568 82.348 51.9927C81.9684 51.9927 81.5887 51.9927 81.2091 51.9927V51.9999Z" fill="white"></path><path d="M12.2138 20.5659C12.5653 20.6018 12.9239 20.6378 13.2754 20.6809C18.2532 21.3274 21.8811 23.7984 23.674 28.7262C24.1591 30.0551 24.4685 31.4343 24.7216 32.8278C24.9747 34.207 25.2137 35.5862 25.4879 36.9583C25.5653 37.3605 25.734 37.7484 25.9098 38.1219C26.2824 38.9193 26.9222 39.3359 27.794 39.379C27.9065 39.379 28.019 39.4078 28.1174 39.4509C28.2581 39.5155 28.2651 39.6448 28.1385 39.7382C28.0752 39.7885 27.9909 39.8316 27.9135 39.8459C27.4073 39.9393 26.8941 40.0614 26.3808 40.1117C25.0872 40.2338 24.0536 39.7597 23.3084 38.6463C22.7881 37.8633 22.4436 36.9942 22.1975 36.0891C21.853 34.8176 21.5788 33.5246 21.2624 32.2388C20.6085 29.6241 19.5258 27.2464 17.6908 25.2638C16.1299 23.5757 14.2386 22.4623 12.0661 21.8015C11.0537 21.4926 10.0131 21.3202 8.95852 21.3274C8.54371 21.3274 8.12889 21.4495 7.7211 21.5357C7.07427 21.6865 6.42744 21.8589 5.78061 22.017C5.63296 22.0529 5.57671 22.1247 5.58374 22.2827C5.58374 27.4116 5.58374 32.5333 5.59781 37.6622C5.59781 38.7756 6.31495 39.5873 7.4469 39.7957C7.66486 39.8388 7.89688 39.8316 8.11483 39.8747C8.19217 39.889 8.26248 39.9752 8.33278 40.0255C8.26248 40.083 8.20623 40.1764 8.12889 40.1907C7.98124 40.2267 7.81954 40.2195 7.67189 40.2195C5.2533 40.2195 2.82767 40.2195 0.409081 40.2195C0.338773 40.2195 0.268465 40.2195 0.198158 40.2051C0.0926956 40.1836 -0.0338586 40.1476 0.00832611 40.0112C0.0294185 39.9465 0.13488 39.8747 0.212219 39.8603C0.416112 39.8244 0.634067 39.8244 0.83796 39.7957C1.78009 39.6448 2.4902 38.9983 2.673 38.1148C2.70815 37.9424 2.71518 37.7628 2.71518 37.5832C2.71518 27.1674 2.71518 16.7516 2.71518 6.33579C2.71518 6.01972 2.7433 5.69647 2.673 5.39478C2.45504 4.42503 1.79415 3.91501 0.880144 3.71388C0.669221 3.67078 0.444235 3.68515 0.233311 3.64923C0.148942 3.63486 0.0294185 3.55585 0.0153569 3.48401C-0.0197971 3.34035 0.113788 3.29725 0.233311 3.29006C0.521574 3.29006 0.809836 3.29006 1.0981 3.29006C2.37067 3.29006 3.64325 3.3188 4.90879 3.28288C6.4415 3.23978 7.98124 3.13921 9.51396 3.06738C11.588 2.974 13.6692 2.94527 15.7432 3.08175C17.4728 3.1895 19.1883 3.44091 20.8406 4.01558C21.8882 4.38193 22.8654 4.87758 23.7162 5.62464C24.8341 6.60875 25.4528 7.86583 25.7199 9.32405C26.0223 10.9834 25.8746 12.5709 25.0379 14.0578C24.4333 15.1282 23.6037 15.9758 22.6264 16.6941C21.4101 17.592 20.0531 18.2026 18.654 18.7198C17.0018 19.3304 15.3073 19.7686 13.5988 20.1708C13.1348 20.2786 12.6778 20.4007 12.2208 20.5085C12.2208 20.53 12.2208 20.5444 12.2208 20.5659H12.2138ZM5.60484 21.4926C5.66811 21.4854 5.69624 21.4782 5.71733 21.471C6.35713 21.2986 7.00396 21.1262 7.64377 20.9395C9.83034 20.3145 12.0169 19.7039 14.1894 19.0431C15.7221 18.5762 17.2056 17.9728 18.6048 17.1682C19.575 16.6151 20.4539 15.9542 21.1569 15.0635C22.3311 13.5838 22.7037 11.9029 22.4576 10.0352C22.2327 8.31838 21.3749 7.04694 19.9617 6.12747C18.9422 5.45942 17.8173 5.04998 16.6502 4.74109C14.6394 4.20953 12.5794 4.00121 10.5123 3.90065C9.24679 3.836 7.97421 3.82163 6.70164 3.78571C6.32901 3.77853 5.96341 3.78571 5.59078 3.78571V21.4854L5.60484 21.4926Z" fill="white"></path><path d="M37.0051 38.1211C37.0051 38.2289 37.0051 38.2864 37.0051 38.3366C37.0824 38.8969 37.1527 39.4572 37.2512 40.0104C37.2793 40.1899 37.2301 40.2187 37.0754 40.2187C35.5146 40.2187 33.9608 40.2187 32.3999 40.2187C32.1749 40.2187 31.95 40.2187 31.725 40.2259C31.6617 40.2259 31.5844 40.2402 31.5422 40.2115C31.4719 40.1612 31.4156 40.0822 31.3594 40.0175C31.4297 39.9673 31.493 39.8811 31.5633 39.8739C31.8375 39.8236 32.1257 39.8308 32.3929 39.7589C33.2507 39.5363 33.8553 39.0262 34.0522 38.1068C34.0873 37.9487 34.0873 37.7763 34.0873 37.6183C34.0873 27.1091 34.0873 16.5999 34.0873 6.09075C34.0873 5.94709 34.0873 5.80342 34.0873 5.65976C34.0873 4.72592 33.5178 4.02914 32.6109 3.85674C32.4773 3.83519 32.3437 3.82801 32.2171 3.79209C32.1609 3.77773 32.1187 3.70589 32.0695 3.66279C32.1187 3.61251 32.1609 3.52631 32.2171 3.51913C33.6233 3.30363 34.6146 2.39853 35.5849 1.45752C35.9997 1.05525 36.3864 0.61707 36.7871 0.193255C36.8364 0.142971 36.8996 0.0926883 36.977 0.0136719V18.4461C37.5324 18.1803 38.0597 17.9001 38.6081 17.6703C40.3307 16.9304 42.1376 16.5712 44.0078 16.5353C45.6881 16.4994 47.3474 16.679 48.9504 17.1962C52.501 18.3527 55.0039 20.7016 56.4663 24.1927C56.9796 25.4139 57.3311 26.6781 57.3592 28.007C57.4014 30.4206 56.9585 32.7337 55.8054 34.8671C54.3079 37.647 52.0018 39.371 49.0348 40.233C47.1435 40.7862 45.21 40.9083 43.2625 40.7143C41.5962 40.5491 40.0143 40.0894 38.5589 39.2417C38.1019 38.9688 37.6801 38.6312 37.2441 38.3223C37.1738 38.272 37.1106 38.2217 36.9981 38.1355L37.0051 38.1211ZM36.9629 27.4252C36.9629 30.1333 36.9629 32.8342 36.9629 35.5423C36.9629 35.6716 36.9981 35.8153 37.0684 35.923C37.9121 37.3238 39.0862 38.3654 40.4853 39.1484C41.997 39.996 43.6211 40.4414 45.3436 40.1684C48.8028 39.6081 51.362 37.762 52.8455 34.472C53.4923 33.0497 53.8087 31.5412 53.9563 29.9825C54.1462 28.0142 53.9774 26.0819 53.3376 24.2071C52.5783 21.9731 51.2706 20.1629 49.2527 18.9632C46.9818 17.6128 44.514 17.1315 41.9056 17.4548C40.2111 17.6631 38.6362 18.2737 37.1035 19.0207C36.9981 19.071 36.9489 19.1356 36.9489 19.2649C36.9489 21.9874 36.9489 24.7027 36.9489 27.4252H36.9629Z" fill="white"></path><path d="M63.3021 13.8568C63.3021 13.4401 63.3021 13.0522 63.3021 12.6715C63.3162 11.5653 63.2951 10.4519 63.3654 9.34563C63.4849 7.48516 63.9279 5.69651 64.8911 4.08745C66.1707 1.954 68.0409 0.711291 70.4665 0.366492C72.8499 0.0216934 75.0506 0.524525 77.0403 1.92527C77.8559 2.49994 78.5027 3.21827 78.7839 4.21675C78.9527 4.80578 78.9808 5.39481 78.5519 5.90483C78.1863 6.33583 77.7012 6.55132 77.1598 6.63034C76.8013 6.68062 76.5903 6.43639 76.6114 6.01976C76.6606 5.08593 76.4427 4.21675 76.0208 3.39785C75.4021 2.18387 74.5162 1.24286 73.2015 0.854958C71.5563 0.366492 70.0306 0.725658 68.6877 1.80316C67.5698 2.70107 66.9792 3.95815 66.5996 5.32298C66.3254 6.30709 66.1777 7.30557 66.1707 8.3256C66.1566 10.1214 66.1355 11.9173 66.1215 13.7131C66.1215 13.7562 66.1285 13.7921 66.1355 13.8639H66.3676C68.3502 13.8639 70.3259 13.8639 72.3086 13.8639C72.407 13.8639 72.5054 13.8639 72.5968 13.8927C72.6461 13.907 72.7093 13.9789 72.7023 14.022C72.7023 14.0794 72.6461 14.1585 72.5968 14.1728C72.5125 14.2016 72.4211 14.2016 72.3297 14.2016C70.354 14.2016 68.3854 14.2016 66.4097 14.2016H66.1355C66.1355 14.2734 66.1215 14.3309 66.1215 14.3955C66.1215 21.938 66.1215 29.4876 66.1215 37.0301C66.1215 37.3893 66.1285 37.7485 66.1918 38.1004C66.3605 38.9912 67.0566 39.6305 68.0128 39.7957C68.2307 39.8316 68.4627 39.8316 68.6807 39.8675C68.744 39.8747 68.8072 39.9465 68.8635 39.9896C68.8072 40.0615 68.7651 40.1764 68.7018 40.1908C68.5541 40.2267 68.3995 40.2267 68.2448 40.2267C65.8192 40.2267 63.3865 40.2267 60.9609 40.2267C60.8835 40.2267 60.7992 40.2411 60.7359 40.2123C60.6586 40.1764 60.6023 40.0902 60.539 40.0327C60.6093 39.9753 60.6726 39.8819 60.75 39.8675C60.9468 39.8316 61.1577 39.8388 61.3546 39.8101C62.5428 39.6305 63.281 38.7757 63.3021 37.5473C63.3092 36.987 63.3021 36.4339 63.3021 35.8736C63.3021 29.1788 63.3021 22.4839 63.3021 15.7891C63.3021 15.315 63.3021 14.8409 63.3021 14.374C63.3021 14.3237 63.2951 14.2806 63.2881 14.2016H63.035C62.1421 14.2016 61.2491 14.2016 60.3633 14.2016C60.293 14.2016 60.2086 14.2159 60.1594 14.1872C60.1031 14.1585 60.0539 14.0794 60.0469 14.0148C60.0469 13.9717 60.1172 13.8927 60.1664 13.8783C60.2508 13.8496 60.3492 13.8568 60.4406 13.8568C61.3265 13.8568 62.2124 13.8568 63.0912 13.8568C63.1545 13.8568 63.2178 13.8568 63.3092 13.8568H63.3021Z" fill="white"></path><path d="M105.667 40.1694C104.345 40.1407 103.276 38.9698 103.41 37.6696C103.508 36.7142 104.253 35.9456 105.287 35.7373C106.377 35.5146 107.607 36.2473 107.909 37.2889C108.254 38.4669 107.537 39.7025 106.306 40.0473C106.095 40.1047 105.878 40.1263 105.667 40.1622V40.1694Z" fill="white"></path></g><defs><clipPath id="clip0_191_3356"><rect width="108" height="52" fill="white"></rect></clipPath></defs></svg>