<?xml version="1.0" encoding="utf-8"?>
<!-- Generator: Adobe Illustrator 16.0.0, SVG Export Plug-In . SVG Version: 6.00 Build 0)  -->
<!DOCTYPE svg PUBLIC "-//W3C//DTD SVG 1.1//EN" "http://www.w3.org/Graphics/SVG/1.1/DTD/svg11.dtd">
<svg version="1.1" id="Layer_1" xmlns="http://www.w3.org/2000/svg" xmlns:xlink="http://www.w3.org/1999/xlink" x="0px" y="0px"
	 width="170px" height="52.076px" viewBox="0 0 170 52.076" enable-background="new 0 0 170 52.076" xml:space="preserve">
<path fill="#3A3532" d="M30.292,19.746c0.006-0.187,0.008-0.371,0.008-0.551c0-2.311-1.97-4.192-4.396-4.201
	c-0.058,0-0.11,0.004-0.162,0.006c-2.368,0.075-4.265,1.928-4.265,4.195c0,2.25,1.862,4.091,4.201,4.195l0.63-0.015
	C28.366,23.203,30.026,21.685,30.292,19.746z"/>
<path fill="#3A3532" d="M51.713,23.428l-7.17-15.379c-0.438-0.934-1.225-1.659-2.198-2.011L26.407,0.235
	c-0.973-0.354-2.042-0.307-2.978,0.128L8.05,7.533C7.117,7.972,6.391,8.761,6.039,9.731L0.236,25.674
	c-0.355,0.971-0.307,2.041,0.129,2.976l7.17,15.378c0.438,0.936,1.227,1.659,2.199,2.011l15.943,5.804
	c0.431,0.156,0.879,0.234,1.328,0.234c0.563,0,1.128-0.12,1.645-0.363l15.378-7.171c0.938-0.437,1.66-1.227,2.016-2.197
	l5.799-15.942C52.199,25.433,52.152,24.362,51.713,23.428z M41.016,27.713l-7.763-0.193c0.942,1.395,1.438,3.002,1.438,4.689
	c0,4.729-3.951,8.575-8.804,8.575c-0.004,0-0.007,0-0.01,0c-0.001,0-0.002,0-0.002,0c-1.28,0-2.494-0.274-3.593-0.759
	c-3.063-1.344-5.204-4.338-5.204-7.816c0-1.078,0.209-2.135,0.613-3.137h0.017c0.217-0.54,0.494-1.063,0.825-1.553l0.223-0.365
	l-7.714-0.19l0.01-0.843l29.983-0.004L41.016,27.713z M11.052,24.598l-0.01-0.839l8.09-0.204c-0.887-1.295-1.357-2.791-1.357-4.359
	c0-4.357,3.637-7.903,8.112-7.903c0.005,0,0.009,0,0.019,0c0.004,0,0.01,0,0.02,0c4.467,0,8.106,3.546,8.106,7.903
	c0,1.434-0.396,2.803-1.134,4.016l8.118-0.206l0.02,1.597L11.052,24.598z"/>
<path fill="#3A3532" d="M25.877,27.336l-0.083,0.002c-1.535,0.021-2.906,0.699-3.827,1.754h0.001
	c-0.075,0.082-0.141,0.17-0.206,0.254c-0.024,0.037-0.054,0.072-0.083,0.108c-0.048,0.066-0.089,0.136-0.137,0.207
	c-0.037,0.06-0.081,0.124-0.115,0.187c-0.033,0.055-0.064,0.112-0.092,0.167c-0.043,0.085-0.09,0.169-0.126,0.255
	c-0.021,0.043-0.039,0.088-0.059,0.131c-0.043,0.107-0.089,0.215-0.122,0.326c-0.012,0.029-0.018,0.055-0.03,0.081
	c-0.04,0.14-0.082,0.281-0.111,0.423c-0.001,0.004-0.002,0.008-0.002,0.008c-0.066,0.315-0.103,0.639-0.103,0.971
	c0,1.313,0.546,2.506,1.431,3.382c0.93,0.919,2.234,1.495,3.674,1.495c2.814,0,5.105-2.188,5.105-4.877
	c0-2.664-2.246-4.832-5.032-4.871L25.877,27.336z"/>
<g>
	<path fill="#3A3532" d="M143.166,8.25c-0.242,0-0.367-0.119-0.367-0.352s0.125-0.35,0.367-0.35h0.777V6.486
		c0-0.175-0.006-0.291-0.025-0.358c-0.02-0.069-0.092-0.123-0.217-0.163c-0.082-0.025-0.156-0.052-0.223-0.085s-0.1-0.091-0.1-0.175
		c0-0.17,0.127-0.257,0.381-0.257h0.643c0.322,0,0.486,0.151,0.486,0.448v1.652h1.201V5.077h-2.924
		c-0.242,0-0.367-0.118-0.367-0.359c0-0.232,0.125-0.349,0.367-0.349h4.588c0.244,0,0.369,0.116,0.369,0.349
		c0,0.241-0.123,0.359-0.357,0.359h-0.711v2.472h0.822c0.234,0,0.354,0.117,0.354,0.35s-0.121,0.352-0.365,0.352H143.166z
		 M149.91,12.928h-3.943c-0.398,0-0.598-0.213-0.598-0.643v-0.761c0-0.141-0.031-0.24-0.092-0.29
		c-0.059-0.051-0.135-0.1-0.223-0.137c-0.066-0.021-0.125-0.051-0.168-0.088c-0.049-0.041-0.076-0.101-0.076-0.186
		c0-0.163,0.096-0.246,0.293-0.246h3.871V9.645h-3.572c-0.242,0-0.361-0.12-0.361-0.361c0-0.227,0.119-0.34,0.361-0.34h4.152
		c0.264,0,0.398,0.145,0.398,0.438v1.372c0,0.344-0.15,0.52-0.453,0.52h-3.166v0.71c0,0.163,0.082,0.247,0.252,0.247h3.334
		c0.232,0,0.359,0.111,0.359,0.34C150.279,12.808,150.152,12.928,149.91,12.928z M149.066,4.533c0-0.188-0.031-0.313-0.094-0.371
		c-0.066-0.059-0.166-0.1-0.307-0.133c-0.158-0.034-0.277-0.072-0.369-0.109c-0.088-0.039-0.131-0.104-0.131-0.195
		c0-0.176,0.127-0.263,0.391-0.263h1.01c0.311,0,0.469,0.136,0.469,0.409v1.852h1.385c0.236,0,0.355,0.124,0.355,0.373
		c0,0.238-0.119,0.357-0.355,0.357h-1.385v1.153c0,0.606-0.25,0.905-0.746,0.905h-0.223V4.533z"/>
	<path fill="#3A3532" d="M157.041,4.902c0.322,0,0.48,0.169,0.48,0.498v2.813c0,0.369-0.053,0.652-0.166,0.847
		c0.217,0.017,0.32,0.132,0.32,0.351c0,0.24-0.121,0.363-0.365,0.363h-3.143c-0.117,0.182-0.293,0.271-0.52,0.271h-0.227V6.112
		c0-0.249-0.006-0.403-0.023-0.473c-0.021-0.066-0.092-0.125-0.219-0.172c-0.09-0.037-0.166-0.077-0.234-0.12
		c-0.066-0.041-0.102-0.101-0.102-0.182c0-0.174,0.127-0.264,0.367-0.264H157.041z M154.369,9.06h2.197V5.614h-2.184v3.171
		C154.383,8.885,154.373,8.977,154.369,9.06z M159.314,4.533c0-0.188-0.033-0.313-0.092-0.371c-0.059-0.059-0.164-0.1-0.309-0.133
		c-0.15-0.034-0.271-0.072-0.363-0.109c-0.094-0.039-0.137-0.104-0.137-0.195c0-0.176,0.123-0.263,0.387-0.263h0.998
		c0.32,0,0.479,0.136,0.479,0.409v8.144c0,0.611-0.244,0.913-0.73,0.913h-0.232V4.533z"/>
	<path fill="#3A3532" d="M161.779,6.766c0-0.571,0.209-1.06,0.623-1.467c0.416-0.406,0.934-0.609,1.566-0.609
		c0.627,0,1.156,0.202,1.574,0.605c0.297,0.285,0.488,0.613,0.568,0.983h0.91V5.283c0-0.182-0.023-0.3-0.076-0.355
		c-0.053-0.052-0.15-0.101-0.303-0.14c-0.162-0.038-0.283-0.078-0.363-0.12c-0.082-0.041-0.125-0.107-0.125-0.193
		c0-0.163,0.133-0.24,0.391-0.24h0.955c0.316,0,0.479,0.144,0.479,0.438v5.002c0,0.613-0.246,0.917-0.744,0.917h-0.213V6.99h-0.867
		c-0.049,0.476-0.252,0.888-0.611,1.239c-0.418,0.409-0.947,0.613-1.574,0.613c-0.633,0-1.15-0.204-1.566-0.609
		C161.988,7.827,161.779,7.336,161.779,6.766z M162.734,6.766c0,0.401,0.125,0.73,0.371,0.98c0.25,0.251,0.539,0.375,0.863,0.375
		c0.326,0,0.611-0.124,0.865-0.375c0.256-0.25,0.377-0.579,0.377-0.98c0-0.408-0.121-0.737-0.377-0.988
		c-0.254-0.253-0.539-0.377-0.865-0.377c-0.324,0-0.613,0.124-0.863,0.377C162.859,6.028,162.734,6.357,162.734,6.766z
		 M169.623,12.928h-4.121c-0.707,0-1.057-0.287-1.057-0.865v-1.071c0-0.183-0.033-0.305-0.094-0.363
		c-0.063-0.058-0.17-0.102-0.318-0.134c-0.152-0.049-0.26-0.087-0.316-0.123c-0.053-0.033-0.084-0.1-0.084-0.189
		c0-0.176,0.115-0.266,0.348-0.266h0.963c0.314,0,0.467,0.156,0.467,0.461v1.626c0,0.138,0.072,0.207,0.213,0.207h4.004
		c0.25,0,0.373,0.12,0.373,0.36C170,12.809,169.873,12.928,169.623,12.928z M168.299,3.462h0.965c0.334,0,0.504,0.14,0.504,0.419
		v6.008c0,0.611-0.256,0.916-0.756,0.916h-0.219V4.525c0-0.189-0.029-0.313-0.08-0.373c-0.045-0.057-0.15-0.102-0.314-0.139
		c-0.164-0.027-0.285-0.061-0.369-0.101c-0.086-0.034-0.131-0.097-0.131-0.188C167.898,3.549,168.031,3.462,168.299,3.462z"/>
</g>
<polygon fill="#3A3532" points="98.397,16.951 94.919,16.951 94.919,35.867 107.42,35.867 107.42,33.283 98.397,33.283 "/>
<rect x="132.016" y="16.951" fill="#3A3532" width="3.477" height="18.916"/>
<path fill="#3A3532" d="M128.139,16.951h-3.998c0,0-4.197,12.906-4.793,14.85c-0.605-2.003-4.844-14.85-4.844-14.85h-3.996v18.916
	h3.473v-11.27c0.336,0.941,3.799,11.161,3.799,11.161h3.066c0,0,3.393-10.048,3.855-11.263v11.371h3.479V16.951H128.139z"/>
<path fill="#3A3532" d="M169.996,16.951h-3.475v12.652c-2.193-3.723-6.791-12.652-6.791-12.652h-3.574v18.916h3.475V22.785
	c1.473,2.574,6.891,13.082,6.891,13.082h3.475H170V16.951H169.996z"/>
<path fill="#3A3532" d="M73.853,18.414c-1.374-1.063-3.461-1.6-6.209-1.6c-1.891,0-4.498,0.121-6.144,0.355l-0.296,0.043v18.654
	h3.449V19.418c0.521-0.082,2.144-0.131,3.054-0.131c1.746,0,4.681,0.43,4.681,3.316c0,2.205-1.712,3.497-4.699,3.58v2.502
	c2.688-0.062,4.951-0.801,6.397-2.096c1.159-1.021,1.741-2.41,1.741-4.124C75.828,20.829,75.129,19.389,73.853,18.414z"/>
<path fill="#3A3532" d="M79.015,22.406c-0.763,5.487-2.705,9.09-5.329,12.501l2.491,1.917c2.646-3.437,5.129-7.588,5.998-14.418
	H79.015z"/>
<path fill="#3A3532" d="M93.294,34.907c-3.404-4.427-5.674-9.177-5.674-17.956h-8.34v2.582h5.266
	c0.469,8.584,3.262,13.396,6.256,17.291L93.294,34.907z"/>
<g>
	<path fill="#3A3532" d="M150.4,35.867h3.354l-6.455-18.918h-3.24l-6.453,18.918h3.271c0.426-1.334,4.377-13.871,4.566-14.598
		l0.158-0.604l0.154,0.604C145.943,21.979,149.973,34.537,150.4,35.867z"/>
</g>
</svg>
